<svg id="igqr" data-name="Capa 1" xmlns="http://www.w3.org/2000/svg" viewBox="0 0 600 800"><circle cx="77.33" cy="182.14" r="20.5"/><circle cx="77.33" cy="626.78" r="20.5"/><circle cx="522.34" cy="182.14" r="20.5"/><path d="M95.52,136H59.8a27.78,27.78,0,0,0-27.7,27.69v37.19a27.78,27.78,0,0,0,27.7,27.69H95.52a27.78,27.78,0,0,0,27.7-27.69V163.64A27.78,27.78,0,0,0,95.52,136Zm15.56,67.93a12.9,12.9,0,0,1-12.86,12.86H56.49a12.89,12.89,0,0,1-12.86-12.86V162.15a12.9,12.9,0,0,1,12.86-12.86H98.22a12.9,12.9,0,0,1,12.86,12.86Z"/><path d="M95.52,580.5H59.8a27.78,27.78,0,0,0-27.7,27.69v37.19a27.78,27.78,0,0,0,27.7,27.69H95.52a27.78,27.78,0,0,0,27.7-27.69V608.19A27.78,27.78,0,0,0,95.52,580.5Zm15.56,67.93a12.9,12.9,0,0,1-12.86,12.86H56.49a12.9,12.9,0,0,1-12.86-12.86V606.7a12.9,12.9,0,0,1,12.86-12.86H98.22a12.9,12.9,0,0,1,12.86,12.86Z"/><path d="M329.75,329.12H270.88a45.78,45.78,0,0,0-45.64,45.64V436a45.78,45.78,0,0,0,45.64,45.64h58.87A45.77,45.77,0,0,0,375.38,436V374.76A45.77,45.77,0,0,0,329.75,329.12Zm30.49,111.53A24.15,24.15,0,0,1,336,464.53H263.63a24.14,24.14,0,0,1-24.24-23.88V369.38a24.13,24.13,0,0,1,24.24-23.88H336a24.14,24.14,0,0,1,24.25,23.88Z"/><path d="M540.2,136H504.48a27.78,27.78,0,0,0-27.7,27.69v37.19a27.78,27.78,0,0,0,27.7,27.69H540.2a27.78,27.78,0,0,0,27.7-27.69V163.64A27.78,27.78,0,0,0,540.2,136Zm15.56,67.93a12.89,12.89,0,0,1-12.86,12.86H501.17a12.9,12.9,0,0,1-12.86-12.86V162.15a12.9,12.9,0,0,1,12.86-12.86H542.9a12.9,12.9,0,0,1,12.86,12.86Z"/><path d="M299.81,367a38.45,38.45,0,1,0,38.45,38.45A38.46,38.46,0,0,0,299.81,367Zm0,63.45a25,25,0,1,1,25-25A25,25,0,0,1,299.81,430.4Z"/><circle cx="341.37" cy="364.36" r="9.77"/><circle cx="430.67" cy="666.55" r="6.29"/><circle cx="457.1" cy="666.55" r="6.29"/><circle cx="470.16" cy="641.12" r="5.47"/><circle cx="457.1" cy="627.56" r="5.47"/><circle cx="457.1" cy="614.79" r="4.57"/><circle cx="470.16" cy="653.82" r="4.16"/><circle cx="509.17" cy="666.87" r="4.16"/><circle cx="522.14" cy="654.26" r="4.16"/><circle cx="522.14" cy="627.56" r="4.16"/><circle cx="509.17" cy="601.25" r="4.77"/><circle cx="509.17" cy="588.14" r="4.77"/><circle cx="509.17" cy="562.05" r="4.77"/><circle cx="496.38" cy="549.16" r="4.77"/><circle cx="443.74" cy="562.05" r="5.19"/><circle cx="509.17" cy="575.38" r="4.77"/><circle cx="483.04" cy="562.05" r="4.26"/><circle cx="457.1" cy="549.12" r="4.81"/><circle cx="443.74" cy="536.51" r="4.81"/><circle cx="417.78" cy="522.87" r="5.41"/><circle cx="456.65" cy="536.51" r="4.81"/><circle cx="470.15" cy="536.51" r="4.81"/><circle cx="535.11" cy="575.38" r="4.77"/><circle cx="561.9" cy="536.5" r="4.42"/><circle cx="548.54" cy="522.87" r="4.85"/><circle cx="561.67" cy="509.78" r="4.18"/><circle cx="522.35" cy="496.79" r="4.72"/><circle cx="535.5" cy="496.79" r="4.18"/><circle cx="548.54" cy="497.06" r="6.06"/><circle cx="522.02" cy="510.1" r="6.13"/><circle cx="508.84" cy="522.87" r="5.89"/><circle cx="469.61" cy="522.87" r="5.89"/><circle cx="430.44" cy="522.87" r="5.89"/><circle cx="417.78" cy="536.02" r="6.13"/><circle cx="430.44" cy="549.16" r="5.89"/><circle cx="404.46" cy="549.16" r="5.89"/><circle cx="430.44" cy="509.78" r="5.89"/><circle cx="443.74" cy="483.29" r="5.89"/><circle cx="456.65" cy="470.89" r="5.89"/><circle cx="456.76" cy="457.47" r="5.41"/><circle cx="508.84" cy="431.25" r="6.06"/><circle cx="469.78" cy="378.88" r="6.06"/><circle cx="482.87" cy="378.88" r="6.06"/><circle cx="508.84" cy="378.88" r="6.06"/><circle cx="469.78" cy="391.98" r="6.06"/><circle cx="443.52" cy="444.24" r="5.41"/><circle cx="443.72" cy="418.21" r="5.21"/><circle cx="404.46" cy="392.08" r="5.21"/><circle cx="417.5" cy="392.08" r="4.59"/><circle cx="391.48" cy="392.08" r="4.59"/><circle cx="391.48" cy="379.15" r="4.59"/><circle cx="391.48" cy="418.21" r="4.59"/><circle cx="404.75" cy="405.01" r="4.18"/><circle cx="391.48" cy="365.91" r="4.05"/><circle cx="391.48" cy="352.64" r="4.58"/><circle cx="391.48" cy="326.76" r="5.49"/><circle cx="404.27" cy="352.64" r="5.83"/><circle cx="404.65" cy="339.69" r="6.22"/><circle cx="444.15" cy="405.08" r="5.64"/><circle cx="430.58" cy="392.08" r="6.03"/><circle cx="456.84" cy="391.87" r="5.56"/><circle cx="443.79" cy="378.82" r="4.92"/><circle cx="469.78" cy="353.02" r="5.79"/><circle cx="469.78" cy="339.59" r="6.08"/><circle cx="443.79" cy="365.79" r="4.92"/><circle cx="443.79" cy="352.76" r="5.53"/><circle cx="443.79" cy="339.59" r="5.53"/><circle cx="456.76" cy="431.25" r="5.41"/><circle cx="496.3" cy="405.15" r="5.41"/><circle cx="391.48" cy="496.79" r="5.89"/><circle cx="391.48" cy="483.66" r="5.89"/><circle cx="391.48" cy="470.89" r="5.89"/><circle cx="404.46" cy="457.58" r="5.89"/><circle cx="404.46" cy="431.25" r="5.89"/><circle cx="391.48" cy="431.25" r="5.89"/><circle cx="430.58" cy="418.21" r="5.89"/><circle cx="391.48" cy="457.58" r="5.3"/><circle cx="417.72" cy="470.89" r="5.3"/><circle cx="404.46" cy="470.67" r="4.61"/><circle cx="404.46" cy="483.66" r="4.61"/><circle cx="561.67" cy="483.29" r="6.06"/><circle cx="561.63" cy="457.58" r="5.45"/><circle cx="548.38" cy="457.43" r="5.3"/><circle cx="522.35" cy="457.58" r="5.3"/><circle cx="535.11" cy="470.64" r="6.31"/><circle cx="535.5" cy="536.27" r="4.18"/><circle cx="561.67" cy="470.29" r="4.18"/><circle cx="522.35" cy="444.21" r="4.03"/><circle cx="509.28" cy="418.21" r="4.03"/><circle cx="470.1" cy="431.25" r="4.98"/><circle cx="456.84" cy="444.55" r="4.71"/><circle cx="417.72" cy="444.55" r="4.71"/><circle cx="482.87" cy="405.15" r="4.71"/><circle cx="509.28" cy="444.28" r="4.9"/><circle cx="496.16" cy="457.47" r="4.64"/><circle cx="483.16" cy="457.47" r="5.7"/><circle cx="495.92" cy="470.64" r="3.98"/><circle cx="509.28" cy="483.66" r="3.98"/><circle cx="482.86" cy="470.64" r="3.98"/><circle cx="509.28" cy="496.79" r="3.98"/><circle cx="470.15" cy="496.79" r="3.98"/><circle cx="456.65" cy="509.78" r="3.98"/><circle cx="443.52" cy="509.78" r="3.98"/><circle cx="443.52" cy="496.79" r="3.98"/><circle cx="457.19" cy="483.66" r="3.98"/><circle cx="469.48" cy="483.66" r="3.98"/><circle cx="496.16" cy="496.79" r="4.64"/><circle cx="483.16" cy="496.79" r="5.37"/><circle cx="483.16" cy="483.66" r="5.37"/><circle cx="509.28" cy="470.64" r="5.37"/><circle cx="548.54" cy="470.64" r="4.67"/><circle cx="522.35" cy="483.66" r="5.36"/><circle cx="548.54" cy="444.21" r="4.67"/><circle cx="535.39" cy="418.23" r="4.26"/><circle cx="508.84" cy="391.98" r="5.34"/><circle cx="509.2" cy="365.42" r="4.92"/><circle cx="495.85" cy="378.88" r="3.97"/><circle cx="469.78" cy="365.79" r="3.97"/><circle cx="509.2" cy="339.86" r="3.97"/><circle cx="535.13" cy="313.58" r="3.97"/><circle cx="509.2" cy="313.58" r="3.97"/><circle cx="482.87" cy="313.58" r="3.97"/><circle cx="561.67" cy="404.86" r="4.67"/><circle cx="561.67" cy="378.88" r="6.22"/><circle cx="548.67" cy="405.27" r="5.94"/><circle cx="535.39" cy="405.27" r="5.94"/><circle cx="548.67" cy="392" r="5.52"/><circle cx="535.39" cy="392" r="5.36"/><circle cx="535.39" cy="378.88" r="5.36"/><circle cx="548.41" cy="365.86" r="6.2"/><circle cx="535.4" cy="339.34" r="6.13"/><circle cx="535.13" cy="365.86" r="5.37"/><circle cx="561.67" cy="392.25" r="4.18"/><circle cx="561.67" cy="326.4" r="4.84"/><circle cx="469.78" cy="326.4" r="4.84"/><circle cx="482.87" cy="326.4" r="4.84"/><circle cx="496.04" cy="313.58" r="4.84"/><circle cx="496.04" cy="300.31" r="5.17"/><circle cx="522.2" cy="339.59" r="4.84"/><circle cx="522.2" cy="326.4" r="5.44"/><circle cx="561.67" cy="339.86" r="5.54"/><circle cx="561.67" cy="313.58" r="6.14"/><circle cx="469.95" cy="313.31" r="5.97"/><circle cx="548.41" cy="313.58" r="6.14"/><circle cx="482.87" cy="300.31" r="5.89"/><circle cx="469.87" cy="287.31" r="5.89"/><circle cx="483.09" cy="274.1" r="5.89"/><circle cx="470.12" cy="261.06" r="5.37"/><circle cx="443.79" cy="261.06" r="5.37"/><circle cx="417.54" cy="261.06" r="5.9"/><circle cx="391.23" cy="261.06" r="5.9"/><circle cx="404.6" cy="234.95" r="5.9"/><circle cx="364.95" cy="234.95" r="5.9"/><circle cx="326.16" cy="221.75" r="5.45"/><circle cx="299.62" cy="221.75" r="5.45"/><circle cx="273.87" cy="208.49" r="5.45"/><circle cx="234.48" cy="208.81" r="6.05"/><circle cx="234.34" cy="169.7" r="5.91"/><circle cx="221.12" cy="156.54" r="5.91"/><circle cx="195.2" cy="169.7" r="5.91"/><circle cx="208.22" cy="182.71" r="5.43"/><circle cx="234.48" cy="234.94" r="6.05"/><circle cx="352.04" cy="182.48" r="5.45"/><circle cx="338.96" cy="182.48" r="5.45"/><circle cx="312.69" cy="156.46" r="5.45"/><circle cx="299.62" cy="143.29" r="5.45"/><circle cx="352.5" cy="143.29" r="5.45"/><circle cx="312.69" cy="143.29" r="4.75"/><circle cx="326.16" cy="169.7" r="4.75"/><circle cx="352.04" cy="222.04" r="5.9"/><circle cx="338.96" cy="208.95" r="5.9"/><circle cx="338.96" cy="156.98" r="5.9"/><circle cx="338.96" cy="143.29" r="5.9"/><circle cx="378.34" cy="143.29" r="5.9"/><circle cx="404.6" cy="195.97" r="5.9"/><circle cx="365.31" cy="195.67" r="5.9"/><circle cx="312.69" cy="169.7" r="5.9"/><circle cx="286.52" cy="169.7" r="5.9"/><circle cx="352.04" cy="273.91" r="5.9"/><circle cx="365.41" cy="300.31" r="5.9"/><circle cx="325.76" cy="313.58" r="5.9"/><circle cx="391.23" cy="274.43" r="5.9"/><circle cx="378.34" cy="300.32" r="5.3"/><circle cx="377.9" cy="313.58" r="5.3"/><circle cx="509.2" cy="261.06" r="5.89"/><circle cx="535.4" cy="248.03" r="5.89"/><circle cx="522.2" cy="248.03" r="5.22"/><circle cx="561.68" cy="300.31" r="6.14"/><circle cx="561.67" cy="287.46" r="4.84"/><circle cx="535.4" cy="274.4" r="5.63"/><circle cx="548.24" cy="287.24" r="4.62"/><circle cx="522.2" cy="287.24" r="4.04"/><circle cx="482.87" cy="287.24" r="4.04"/><circle cx="496.04" cy="261.06" r="4.04"/><circle cx="456.77" cy="248.03" r="4.04"/><circle cx="456.77" cy="221.56" r="4.04"/><circle cx="443.79" cy="248.03" r="4.74"/><circle cx="456.87" cy="234.95" r="6.07"/><circle cx="456.87" cy="208.55" r="5.7"/><circle cx="443.78" cy="156.46" r="6.02"/><circle cx="417.54" cy="143.29" r="5.42"/><circle cx="404.6" cy="156.46" r="5.42"/><circle cx="430.32" cy="156.46" r="5.42"/><circle cx="443.79" cy="287.46" r="4.04"/><circle cx="404.65" cy="287.46" r="4.04"/><circle cx="352.04" cy="300.65" r="4.04"/><circle cx="365.41" cy="261.06" r="4.04"/><circle cx="352.04" cy="261.06" r="4.04"/><circle cx="338.97" cy="247.99" r="4.04"/><circle cx="326.02" cy="260.94" r="4.04"/><circle cx="312.64" cy="274.32" r="4.04"/><circle cx="299.62" cy="261.06" r="4.04"/><circle cx="286.81" cy="247.99" r="4.04"/><circle cx="338.94" cy="313.58" r="4.04"/><circle cx="312.64" cy="313.58" r="4.04"/><circle cx="299.61" cy="313.58" r="4.04"/><circle cx="287.04" cy="287.3" r="4.04"/><circle cx="273.68" cy="287.3" r="4.71"/><circle cx="338.94" cy="300.31" r="4.76"/><circle cx="326.16" cy="274.32" r="5.52"/><circle cx="312.64" cy="300.31" r="4.76"/><circle cx="417.54" cy="248.03" r="4.04"/><circle cx="417.54" cy="287.46" r="4.04"/><circle cx="404.6" cy="274.1" r="4.74"/><circle cx="404.6" cy="248.03" r="4.74"/><circle cx="430.32" cy="222.04" r="4.74"/><circle cx="404.65" cy="222.04" r="4.74"/><circle cx="456.77" cy="169.7" r="4.74"/><circle cx="443.78" cy="182.31" r="4.74"/><circle cx="443.78" cy="195.26" r="5.38"/><circle cx="456.87" cy="182.31" r="5.38"/><circle cx="404.6" cy="182.31" r="5.38"/><circle cx="417.54" cy="195.97" r="5.38"/><circle cx="404.65" cy="208.95" r="5.38"/><circle cx="378.34" cy="195.67" r="4.83"/><circle cx="391.23" cy="234.95" r="4.04"/><circle cx="378.03" cy="221.75" r="4.04"/><circle cx="338.96" cy="195.67" r="4.04"/><circle cx="338.96" cy="169.7" r="4.04"/><circle cx="325.8" cy="156.54" r="4.04"/><circle cx="300.14" cy="156.54" r="4.04"/><circle cx="286.52" cy="156.54" r="4.04"/><circle cx="260.71" cy="143.29" r="4.04"/><circle cx="260.71" cy="169.7" r="4.04"/><circle cx="260.71" cy="182.48" r="4.04"/><circle cx="247.59" cy="182.48" r="4.04"/><circle cx="234.11" cy="182.48" r="4.04"/><circle cx="234.11" cy="143.29" r="4.04"/><circle cx="300.14" cy="195.67" r="4.04"/><circle cx="313.05" cy="195.67" r="5.09"/><circle cx="326.15" cy="208.84" r="4.74"/><circle cx="352.04" cy="234.95" r="4.74"/><circle cx="339.66" cy="234.95" r="4.74"/><circle cx="326.15" cy="234.95" r="4.74"/><circle cx="312.69" cy="234.95" r="4.74"/><circle cx="273.68" cy="221.75" r="4.74"/><circle cx="221.12" cy="234.94" r="4.1"/><circle cx="247.59" cy="221.88" r="4.87"/><circle cx="234.35" cy="195.59" r="4.74"/><circle cx="221.12" cy="195.59" r="4.51"/><circle cx="260.44" cy="195.45" r="5.3"/><circle cx="273.68" cy="195.45" r="6.07"/><circle cx="247.59" cy="208.81" r="4.68"/><circle cx="260.71" cy="208.81" r="4.1"/><circle cx="273.68" cy="182.77" r="4.74"/><circle cx="273.68" cy="169.7" r="4.74"/><circle cx="195.03" cy="208.81" r="4.1"/><circle cx="168.88" cy="195.59" r="4.1"/><circle cx="181.88" cy="195.59" r="4.1"/><circle cx="195.2" cy="195.59" r="4.1"/><circle cx="142.63" cy="221.88" r="4.72"/><circle cx="142.83" cy="182.25" r="4.15"/><circle cx="142.83" cy="169.69" r="4.15"/><circle cx="155.81" cy="182.8" r="4.15"/><circle cx="208.22" cy="156.24" r="4.75"/><circle cx="221.12" cy="143.44" r="5.47"/><circle cx="181.88" cy="156.24" r="4.75"/><circle cx="195.24" cy="182.8" r="4.15"/><circle cx="182.21" cy="169.76" r="4.15"/><circle cx="169.12" cy="156.56" r="4.15"/><circle cx="182.24" cy="143.44" r="4.15"/><circle cx="155.81" cy="143.44" r="4.15"/><circle cx="169.12" cy="143.44" r="4.15"/><circle cx="195.24" cy="156.56" r="4.15"/><circle cx="247.07" cy="156.56" r="4.87"/><circle cx="260.71" cy="156.56" r="5.54"/><circle cx="168.88" cy="221.88" r="5.36"/><circle cx="168.88" cy="208.81" r="5.94"/><circle cx="155.81" cy="195.59" r="5.94"/><circle cx="168.92" cy="182.8" r="5.44"/><circle cx="155.81" cy="208.81" r="5.22"/><circle cx="195.03" cy="221.88" r="5.36"/><circle cx="221.12" cy="221.88" r="4.1"/><circle cx="430.64" cy="183.02" r="4.04"/><circle cx="404.6" cy="169.7" r="4.04"/><circle cx="443.79" cy="313.58" r="4.64"/><circle cx="430.75" cy="313.58" r="5.42"/><circle cx="456.77" cy="300.31" r="5.17"/><circle cx="456.77" cy="287.24" r="4.55"/><circle cx="548.46" cy="261.06" r="4.41"/><circle cx="535.11" cy="562.05" r="5.43"/><circle cx="535.11" cy="549.16" r="5.43"/><circle cx="548.51" cy="575.38" r="5.68"/><circle cx="483.04" cy="588.53" r="6.25"/><circle cx="496.38" cy="562.05" r="6.25"/><circle cx="548.54" cy="562.05" r="6.06"/><circle cx="522.14" cy="562.05" r="6.06"/><circle cx="469.61" cy="562.05" r="5.66"/><circle cx="483.22" cy="549.16" r="5.34"/><circle cx="456.65" cy="562.05" r="6.06"/><circle cx="509.17" cy="549.12" r="6.06"/><circle cx="548.54" cy="549.12" r="6.06"/><circle cx="522.14" cy="588.14" r="4.77"/><circle cx="522.14" cy="601.25" r="4.77"/><circle cx="561.51" cy="627.56" r="5.02"/><circle cx="561.51" cy="640.41" r="4.75"/><circle cx="561.51" cy="653.82" r="4"/><circle cx="535.27" cy="654.26" r="5.06"/><circle cx="508.88" cy="653.82" r="5.06"/><circle cx="508.88" cy="640.71" r="4.72"/><circle cx="495.63" cy="640.71" r="4.72"/><circle cx="496.38" cy="627.56" r="5.47"/><circle cx="457.1" cy="602.25" r="4.57"/><circle cx="417.78" cy="601.37" r="4.19"/><circle cx="378.18" cy="575.11" r="4.19"/><circle cx="391.47" cy="549.16" r="4.19"/><circle cx="404.45" cy="536.04" r="3.95"/><circle cx="378.18" cy="601.37" r="4.78"/><circle cx="404.46" cy="588.34" r="4.78"/><circle cx="378.18" cy="562.05" r="4.78"/><circle cx="391.47" cy="588.34" r="5.36"/><circle cx="378.18" cy="588.34" r="5.36"/><circle cx="365.06" cy="601.37" r="4.78"/><circle cx="443.74" cy="588.34" r="4.19"/><circle cx="417.4" cy="588.34" r="5.14"/><circle cx="430.67" cy="588.34" r="4.81"/><circle cx="391.77" cy="653.77" r="5.07"/><circle cx="365.06" cy="653.77" r="4.26"/><circle cx="417.78" cy="640.6" r="4.78"/><circle cx="365.06" cy="666.55" r="4.87"/><circle cx="457.1" cy="588.14" r="4.57"/><circle cx="443.47" cy="575.38" r="5.47"/><circle cx="457.1" cy="575.38" r="4.26"/><circle cx="430.67" cy="575.38" r="3.92"/><circle cx="417.4" cy="562.05" r="4.38"/><circle cx="443.47" cy="614.29" r="5.47"/><circle cx="443.47" cy="601.37" r="6.43"/><circle cx="431.05" cy="614.29" r="5.47"/><circle cx="417.78" cy="614.29" r="5.47"/><circle cx="391.17" cy="627.56" r="5.47"/><circle cx="391.77" cy="640.66" r="5.47"/><circle cx="365.06" cy="640.84" r="5.29"/><circle cx="469.8" cy="614.79" r="5.47"/><circle cx="495.63" cy="614.79" r="5.47"/><circle cx="483.22" cy="614.79" r="6.06"/><circle cx="404.7" cy="627.56" r="6.06"/><circle cx="312.86" cy="628.15" r="6.06"/><circle cx="312.86" cy="640.61" r="5.2"/><circle cx="338.91" cy="640.61" r="5.2"/><circle cx="326.13" cy="653.85" r="4.59"/><circle cx="326.13" cy="627.59" r="4.59"/><circle cx="299.59" cy="627.59" r="4.22"/><circle cx="286.67" cy="640.61" r="3.97"/><circle cx="326.13" cy="614.83" r="3.97"/><circle cx="299.97" cy="601.5" r="3.97"/><circle cx="260.29" cy="601.5" r="5.16"/><circle cx="247.36" cy="601.5" r="5.16"/><circle cx="247.36" cy="575.66" r="4.94"/><circle cx="221.04" cy="575.41" r="4.7"/><circle cx="221.04" cy="562.22" r="4.1"/><circle cx="247.36" cy="562.22" r="4.1"/><circle cx="247.36" cy="549.03" r="4.1"/><circle cx="247.36" cy="536.23" r="4.94"/><circle cx="234.44" cy="536.23" r="5.48"/><circle cx="234.44" cy="522.58" r="4.66"/><circle cx="221.02" cy="522.58" r="4.66"/><circle cx="273.32" cy="562.22" r="4.1"/><circle cx="234.44" cy="601.5" r="4.6"/><circle cx="221.28" cy="601.5" r="4.6"/><circle cx="221.28" cy="588.58" r="4.21"/><circle cx="247.6" cy="588.58" r="5.73"/><circle cx="338.91" cy="614.83" r="5.2"/><circle cx="338.91" cy="588.21" r="5.2"/><circle cx="286.67" cy="601.5" r="5.2"/><circle cx="326.13" cy="666.83" r="4.59"/><circle cx="299.59" cy="653.77" r="4.59"/><circle cx="312.86" cy="653.77" r="4.26"/><circle cx="312.86" cy="614.83" r="6.06"/><circle cx="260.63" cy="627.52" r="6.17"/><circle cx="260.63" cy="640.67" r="6.17"/><circle cx="260.63" cy="653.77" r="4.53"/><circle cx="247.6" cy="653.77" r="4.53"/><circle cx="247.6" cy="667" r="4.53"/><circle cx="247.6" cy="640.54" r="4.53"/><circle cx="195.14" cy="614.83" r="4.53"/><circle cx="182.37" cy="627.6" r="4.53"/><circle cx="169.2" cy="601.5" r="4.53"/><circle cx="182.37" cy="640.54" r="3.98"/><circle cx="195.14" cy="640.54" r="3.98"/><circle cx="208.42" cy="653.77" r="4.7"/><circle cx="208.42" cy="666.83" r="4.7"/><circle cx="182.37" cy="666.83" r="4.7"/><circle cx="168.77" cy="666.83" r="4.7"/><circle cx="155.82" cy="666.83" r="4.7"/><circle cx="155.82" cy="653.77" r="4.7"/><circle cx="169.2" cy="653.77" r="4.7"/><circle cx="142.63" cy="614.63" r="4.7"/><circle cx="142.63" cy="627.56" r="5.56"/><circle cx="247.6" cy="627.59" r="5.41"/><circle cx="234.44" cy="627.59" r="5.41"/><circle cx="234.44" cy="614.83" r="5.41"/><circle cx="221.28" cy="614.83" r="6.11"/><circle cx="182.36" cy="614.63" r="5.91"/><circle cx="169.2" cy="614.63" r="5.91"/><circle cx="155.82" cy="614.63" r="5.91"/><circle cx="155.82" cy="627.59" r="5.91"/><circle cx="195.14" cy="588.28" r="5.91"/><circle cx="168.88" cy="562.22" r="5.91"/><circle cx="142.63" cy="588.28" r="5.25"/><circle cx="142.63" cy="522.58" r="5.25"/><circle cx="195.14" cy="522.58" r="5.25"/><circle cx="195.14" cy="509.83" r="5.25"/><circle cx="181.96" cy="509.83" r="6.01"/><circle cx="142.63" cy="536.03" r="5.25"/><circle cx="155.9" cy="523.03" r="5.25"/><circle cx="155.9" cy="496.74" r="6.1"/><circle cx="116.55" cy="536.03" r="5.25"/><circle cx="90.33" cy="536.03" r="5.25"/><circle cx="103.57" cy="522.85" r="5.25"/><circle cx="90.58" cy="522.85" r="4.87"/><circle cx="103.57" cy="536.03" r="4.52"/><circle cx="116.84" cy="509.78" r="4.08"/><circle cx="116.55" cy="483.61" r="4.08"/><circle cx="116.55" cy="457.39" r="4.08"/><circle cx="169.04" cy="444.39" r="3.86"/><circle cx="155.9" cy="444.39" r="5.15"/><circle cx="142.63" cy="444.39" r="5.99"/><circle cx="64.51" cy="457.39" r="4.08"/><circle cx="50.91" cy="431.28" r="4.08"/><circle cx="64.51" cy="431.28" r="4.08"/><circle cx="90.33" cy="470.59" r="4.86"/><circle cx="77.29" cy="483.61" r="4.86"/><circle cx="129.78" cy="509.78" r="4.08"/><circle cx="142.63" cy="496.74" r="4.66"/><circle cx="169.04" cy="483.61" r="5.31"/><circle cx="182.16" cy="483.61" r="5.31"/><circle cx="195.06" cy="483.61" r="5.31"/><circle cx="116.55" cy="562.22" r="5.25"/><circle cx="51.4" cy="562.22" r="5.25"/><circle cx="38.08" cy="548.87" r="4.62"/><circle cx="64.39" cy="536.13" r="4.62"/><circle cx="64.39" cy="509.83" r="5.87"/><circle cx="51.4" cy="496.84" r="5.87"/><circle cx="77.29" cy="470.94" r="5.87"/><circle cx="90.33" cy="457.72" r="5.87"/><circle cx="129.78" cy="457.72" r="5.87"/><circle cx="155.9" cy="470.94" r="5.87"/><circle cx="168.88" cy="470.94" r="5.87"/><circle cx="208.35" cy="470.64" r="6.11"/><circle cx="182.13" cy="470.94" r="4.13"/><circle cx="182.13" cy="431.28" r="4.13"/><circle cx="155.43" cy="405.01" r="4.13"/><circle cx="155.43" cy="392.01" r="4.83"/><circle cx="116.7" cy="352.81" r="4.67"/><circle cx="155.65" cy="339.65" r="4.67"/><circle cx="116.7" cy="326.64" r="5.24"/><circle cx="142.89" cy="326.64" r="4.76"/><circle cx="77.61" cy="326.64" r="4.76"/><circle cx="64.45" cy="326.64" r="4.76"/><circle cx="208.1" cy="339.65" r="5.51"/><circle cx="181.63" cy="313.42" r="5.51"/><circle cx="194.89" cy="313.42" r="5.51"/><circle cx="208.31" cy="313.42" r="5.51"/><circle cx="90.27" cy="352.81" r="4.67"/><circle cx="38.23" cy="365.82" r="6.01"/><circle cx="51.25" cy="352.65" r="5.29"/><circle cx="155.65" cy="365.72" r="5.45"/><circle cx="142.89" cy="365.88" r="5.29"/><circle cx="103.66" cy="352.65" r="5.97"/><circle cx="103.66" cy="339.12" r="5.97"/><circle cx="38.23" cy="300.56" r="5.97"/><circle cx="90.66" cy="300.56" r="5.97"/><circle cx="129.83" cy="274.12" r="5.97"/><circle cx="129.83" cy="260.8" r="5.97"/><circle cx="77.14" cy="261.01" r="5.75"/><circle cx="50.99" cy="261.01" r="5.75"/><circle cx="38.13" cy="261.01" r="5.56"/><circle cx="50.99" cy="274.06" r="5.24"/><circle cx="50.99" cy="287.24" r="4.61"/><circle cx="50.99" cy="300.29" r="4.61"/><circle cx="64.45" cy="300.56" r="4.61"/><circle cx="64.45" cy="287.24" r="4.61"/><circle cx="77.55" cy="287.24" r="4.61"/><circle cx="90.6" cy="274.18" r="5.45"/><circle cx="156.07" cy="418.2" r="4.77"/><circle cx="129.46" cy="431.28" r="4.77"/><circle cx="129.46" cy="405.01" r="4.77"/><circle cx="116.55" cy="431.28" r="4.13"/><circle cx="104.05" cy="392.01" r="4.13"/><circle cx="37.98" cy="405.01" r="4.13"/><circle cx="116.55" cy="378.98" r="4.77"/><circle cx="64.08" cy="365.88" r="4.77"/><circle cx="77.61" cy="339.61" r="4.37"/><circle cx="38.18" cy="326.41" r="4.13"/><circle cx="90.66" cy="313.62" r="4.74"/><circle cx="103.66" cy="313.62" r="4.74"/><circle cx="129.83" cy="287.3" r="5.09"/><circle cx="129.83" cy="247.98" r="5.09"/><circle cx="155.65" cy="287.3" r="5.09"/><circle cx="168.88" cy="287.3" r="4.67"/><circle cx="195.37" cy="274.12" r="4.67"/><circle cx="182.03" cy="261.2" r="4.67"/><circle cx="168.88" cy="234.94" r="4.67"/><circle cx="182.03" cy="234.94" r="4.67"/><circle cx="168.88" cy="274.12" r="4.44"/><circle cx="208.12" cy="247.98" r="4.44"/><circle cx="168.88" cy="300.22" r="5.11"/><circle cx="194.89" cy="287.3" r="5.51"/><circle cx="182.03" cy="247.98" r="5.9"/><circle cx="182.03" cy="300.22" r="5.11"/><circle cx="64.51" cy="392.01" r="3.96"/><circle cx="77.2" cy="378.98" r="3.96"/><circle cx="116.55" cy="405.01" r="4.77"/><circle cx="77.2" cy="392.01" r="5.29"/><circle cx="38.23" cy="378.98" r="5.29"/><circle cx="38.23" cy="352.65" r="5.29"/><circle cx="51.46" cy="339.49" r="5.29"/><circle cx="90.34" cy="392.01" r="5.29"/><circle cx="103.66" cy="378.98" r="5.97"/><circle cx="208.35" cy="431.28" r="4.13"/><circle cx="195.14" cy="457.72" r="4.13"/><circle cx="208.35" cy="457.55" r="5"/><circle cx="182.13" cy="457.55" r="6.03"/><circle cx="129.78" cy="444.39" r="5.87"/><circle cx="129.78" cy="418.15" r="5.87"/><circle cx="77.2" cy="405.22" r="5.87"/><circle cx="169.04" cy="392.01" r="5.87"/><circle cx="142.63" cy="379.03" r="5.87"/><circle cx="208.35" cy="418.2" r="5.87"/><circle cx="195.14" cy="379.03" r="5.87"/><circle cx="169.07" cy="326.64" r="5.87"/><circle cx="195.14" cy="392.01" r="4.94"/><circle cx="195.14" cy="365.58" r="4.75"/><circle cx="208.1" cy="352.87" r="4.14"/><circle cx="155.43" cy="379" r="4.14"/><circle cx="155.65" cy="352.65" r="3.92"/><circle cx="129.32" cy="352.65" r="3.92"/><circle cx="208.31" cy="326.64" r="3.92"/><circle cx="247.21" cy="287.3" r="3.92"/><circle cx="260.4" cy="274.12" r="3.92"/><circle cx="247.52" cy="261.06" r="4.75"/><circle cx="273.57" cy="261.42" r="4.39"/><circle cx="286.45" cy="300.65" r="3.92"/><circle cx="234.18" cy="300.31" r="4.62"/><circle cx="247.21" cy="313.58" r="4.62"/><circle cx="260.4" cy="300.39" r="5.26"/><circle cx="195.14" cy="326.64" r="3.92"/><circle cx="155.65" cy="326.64" r="3.92"/><circle cx="129.83" cy="326.64" r="3.92"/><circle cx="116.42" cy="300.56" r="3.92"/><circle cx="116.42" cy="274.06" r="3.92"/><circle cx="116.42" cy="247.98" r="3.92"/><circle cx="77.55" cy="247.98" r="3.92"/><circle cx="90.6" cy="247.98" r="3.92"/><circle cx="142.89" cy="300.56" r="3.92"/><circle cx="129.83" cy="313.42" r="3.92"/><circle cx="142.63" cy="313.42" r="3.92"/><circle cx="168.88" cy="313.42" r="3.92"/><circle cx="182.03" cy="287.3" r="3.92"/><circle cx="90.33" cy="431.28" r="5.87"/><circle cx="38.08" cy="457.72" r="5.87"/><circle cx="38.08" cy="470.94" r="5.87"/><circle cx="38.17" cy="496.33" r="5.36"/><circle cx="51.4" cy="444.39" r="5.36"/><circle cx="38.17" cy="509.78" r="4.08"/><circle cx="38.17" cy="483.61" r="4.08"/><circle cx="64.39" cy="483.61" r="4.08"/><circle cx="90.58" cy="509.78" r="4.87"/><circle cx="51.4" cy="457.72" r="5.54"/><circle cx="77.62" cy="457.72" r="5.54"/><circle cx="103.53" cy="457.39" r="5.22"/><circle cx="103.57" cy="496.74" r="4.87"/><circle cx="129.46" cy="483.61" r="4.87"/><circle cx="90.33" cy="562.22" r="5.97"/><circle cx="38.08" cy="562.22" r="5.97"/><circle cx="38.08" cy="536.13" r="5.97"/><circle cx="38.08" cy="522.7" r="5.97"/><circle cx="103.57" cy="562.22" r="4.08"/><circle cx="51.08" cy="549.41" r="4.08"/><circle cx="51.08" cy="535.7" r="4.08"/><circle cx="129.46" cy="523.03" r="6.07"/><circle cx="155.82" cy="588.28" r="4.49"/><circle cx="195.14" cy="575.41" r="4.49"/><circle cx="142.63" cy="575.41" r="3.93"/><circle cx="155.82" cy="575.41" r="3.93"/><circle cx="168.88" cy="536.03" r="3.65"/><circle cx="181.96" cy="549.35" r="3.98"/><circle cx="181.96" cy="536.03" r="4.58"/><circle cx="181.45" cy="575.41" r="3.93"/><circle cx="299.59" cy="614.83" r="6.06"/><circle cx="312.86" cy="601.5" r="6.06"/><circle cx="312.86" cy="575.11" r="6.06"/><circle cx="299.97" cy="562.22" r="6.06"/><circle cx="260.63" cy="562.22" r="6.06"/><circle cx="234.44" cy="549.03" r="6.06"/><circle cx="247.4" cy="522.75" r="5.98"/><circle cx="260.63" cy="522.75" r="5.98"/><circle cx="260.63" cy="509.83" r="5.45"/><circle cx="299.79" cy="496.84" r="5.45"/><circle cx="286.58" cy="522.75" r="5.45"/><circle cx="326.22" cy="496.84" r="4.24"/><circle cx="365.37" cy="509.83" r="4.24"/><circle cx="338.94" cy="523.08" r="3.91"/><circle cx="378.18" cy="536.04" r="3.91"/><circle cx="352.11" cy="523.08" r="4.91"/><circle cx="352.11" cy="509.83" r="4.83"/><circle cx="365.37" cy="536.04" r="4.83"/><circle cx="338.94" cy="562.22" r="4.57"/><circle cx="325.72" cy="562.22" r="4.57"/><circle cx="312.86" cy="562.22" r="4.57"/><circle cx="299.79" cy="548.91" r="4.57"/><circle cx="365.37" cy="549.16" r="5.67"/><circle cx="273.78" cy="496.53" r="4.65"/><circle cx="247.4" cy="496.53" r="4.23"/><circle cx="273.78" cy="510" r="5.98"/><circle cx="312.98" cy="510" r="5.98"/><circle cx="234.44" cy="562.22" r="5.41"/><circle cx="299.79" cy="535.77" r="5.88"/><circle cx="338.94" cy="535.77" r="5.88"/><circle cx="352.11" cy="496.79" r="5.88"/><circle cx="378.7" cy="509.83" r="5.88"/><circle cx="378.18" cy="640.66" r="6.06"/><circle cx="509.17" cy="614.79" r="6.06"/><circle cx="535.27" cy="627.56" r="6.06"/><circle cx="548.54" cy="627.56" r="6.06"/><circle cx="548.54" cy="640.41" r="5.41"/><circle cx="535.27" cy="640.41" r="5.41"/></svg>